<?xml version="1.0" encoding="utf-8" standalone="no"?>
<!DOCTYPE svg PUBLIC "-//W3C//DTD SVG 1.1//EN"
  "http://www.w3.org/Graphics/SVG/1.1/DTD/svg11.dtd">
<svg height="288pt" version="1.1" viewBox="0 0 432 288" width="432pt" xmlns="http://www.w3.org/2000/svg" xmlns:xlink="http://www.w3.org/1999/xlink">
 <metadata>
  <rdf:RDF xmlns:cc="http://creativecommons.org/ns#" xmlns:dc="http://purl.org/dc/elements/1.1/" xmlns:rdf="http://www.w3.org/1999/02/22-rdf-syntax-ns#">
   <cc:Work>
    <dc:type rdf:resource="http://purl.org/dc/dcmitype/StillImage"/>
    <dc:date>2022-05-01T18:20:04.288583</dc:date>
    <dc:format>image/svg+xml</dc:format>
    <dc:creator>
     <cc:Agent>
      <dc:title>Matplotlib v3.4.3, https://matplotlib.org/</dc:title>
     </cc:Agent>
    </dc:creator>
   </cc:Work>
  </rdf:RDF>
 </metadata>
 <defs>
  <style type="text/css">*{stroke-linecap:butt;stroke-linejoin:round;}</style>
 </defs>
 <g id="figure_1">
  <g id="patch_1">
   <path d="M 0 288 
L 432 288 
L 432 0 
L 0 0 
z
" style="fill:none;"/>
  </g>
  <g id="axes_1">
   <g id="patch_2">
    <path d="M 54 252 
L 388.8 252 
L 388.8 34.56 
L 54 34.56 
z
" style="fill:#ffffff;"/>
   </g>
   <g id="PathCollection_1">
    <defs>
     <path d="M 0 3 
C 0.795609 3 1.55874 2.683901 2.12132 2.12132 
C 2.683901 1.55874 3 0.795609 3 0 
C 3 -0.795609 2.683901 -1.55874 2.12132 -2.12132 
C 1.55874 -2.683901 0.795609 -3 0 -3 
C -0.795609 -3 -1.55874 -2.683901 -2.12132 -2.12132 
C -2.683901 -1.55874 -3 -0.795609 -3 0 
C -3 0.795609 -2.683901 1.55874 -2.12132 2.12132 
C -1.55874 2.683901 -0.795609 3 0 3 
z
" id="me4e177858c" style="stroke:#1f77b4;"/>
    </defs>
    <g clip-path="url(#p18ddfd01f1)">
     <use style="fill:#1f77b4;stroke:#1f77b4;" x="69.218182" xlink:href="#me4e177858c" y="201.980574"/>
     <use style="fill:#1f77b4;stroke:#1f77b4;" x="90.958442" xlink:href="#me4e177858c" y="206.913739"/>
     <use style="fill:#1f77b4;stroke:#1f77b4;" x="112.698701" xlink:href="#me4e177858c" y="217.58486"/>
     <use style="fill:#1f77b4;stroke:#1f77b4;" x="134.438961" xlink:href="#me4e177858c" y="227.161956"/>
     <use style="fill:#1f77b4;stroke:#1f77b4;" x="156.179221" xlink:href="#me4e177858c" y="233.511731"/>
     <use style="fill:#1f77b4;stroke:#1f77b4;" x="177.919481" xlink:href="#me4e177858c" y="237.054376"/>
     <use style="fill:#1f77b4;stroke:#1f77b4;" x="199.65974" xlink:href="#me4e177858c" y="238.755747"/>
     <use style="fill:#1f77b4;stroke:#1f77b4;" x="221.4" xlink:href="#me4e177858c" y="239.640172"/>
     <use style="fill:#1f77b4;stroke:#1f77b4;" x="243.14026" xlink:href="#me4e177858c" y="240.346658"/>
     <use style="fill:#1f77b4;stroke:#1f77b4;" x="264.880519" xlink:href="#me4e177858c" y="240.656482"/>
     <use style="fill:#1f77b4;stroke:#1f77b4;" x="286.620779" xlink:href="#me4e177858c" y="240.837247"/>
     <use style="fill:#1f77b4;stroke:#1f77b4;" x="308.361039" xlink:href="#me4e177858c" y="239.343628"/>
     <use style="fill:#1f77b4;stroke:#1f77b4;" x="330.101299" xlink:href="#me4e177858c" y="241.477598"/>
     <use style="fill:#1f77b4;stroke:#1f77b4;" x="351.841558" xlink:href="#me4e177858c" y="241.272058"/>
     <use style="fill:#1f77b4;stroke:#1f77b4;" x="373.581818" xlink:href="#me4e177858c" y="241.747561"/>
    </g>
   </g>
   <g id="PathCollection_2">
    <defs>
     <path d="M 0 3 
C 0.795609 3 1.55874 2.683901 2.12132 2.12132 
C 2.683901 1.55874 3 0.795609 3 0 
C 3 -0.795609 2.683901 -1.55874 2.12132 -2.12132 
C 1.55874 -2.683901 0.795609 -3 0 -3 
C -0.795609 -3 -1.55874 -2.683901 -2.12132 -2.12132 
C -2.683901 -1.55874 -3 -0.795609 -3 0 
C -3 0.795609 -2.683901 1.55874 -2.12132 2.12132 
C -1.55874 2.683901 -0.795609 3 0 3 
z
" id="m4f953c0558" style="stroke:#ff7f0e;"/>
    </defs>
    <g clip-path="url(#p18ddfd01f1)">
     <use style="fill:#ff7f0e;stroke:#ff7f0e;" x="69.218182" xlink:href="#m4f953c0558" y="202.213624"/>
     <use style="fill:#ff7f0e;stroke:#ff7f0e;" x="90.958442" xlink:href="#m4f953c0558" y="214.424598"/>
     <use style="fill:#ff7f0e;stroke:#ff7f0e;" x="112.698701" xlink:href="#m4f953c0558" y="163.504005"/>
     <use style="fill:#ff7f0e;stroke:#ff7f0e;" x="134.438961" xlink:href="#m4f953c0558" y="224.343327"/>
     <use style="fill:#ff7f0e;stroke:#ff7f0e;" x="156.179221" xlink:href="#m4f953c0558" y="237.26931"/>
     <use style="fill:#ff7f0e;stroke:#ff7f0e;" x="177.919481" xlink:href="#m4f953c0558" y="239.871"/>
     <use style="fill:#ff7f0e;stroke:#ff7f0e;" x="199.65974" xlink:href="#m4f953c0558" y="240.442492"/>
     <use style="fill:#ff7f0e;stroke:#ff7f0e;" x="221.4" xlink:href="#m4f953c0558" y="238.017874"/>
     <use style="fill:#ff7f0e;stroke:#ff7f0e;" x="243.14026" xlink:href="#m4f953c0558" y="241.679512"/>
     <use style="fill:#ff7f0e;stroke:#ff7f0e;" x="264.880519" xlink:href="#m4f953c0558" y="241.527084"/>
     <use style="fill:#ff7f0e;stroke:#ff7f0e;" x="286.620779" xlink:href="#m4f953c0558" y="215.303067"/>
     <use style="fill:#ff7f0e;stroke:#ff7f0e;" x="308.361039" xlink:href="#m4f953c0558" y="241.903349"/>
     <use style="fill:#ff7f0e;stroke:#ff7f0e;" x="330.101299" xlink:href="#m4f953c0558" y="240.480144"/>
     <use style="fill:#ff7f0e;stroke:#ff7f0e;" x="351.841558" xlink:href="#m4f953c0558" y="241.601172"/>
     <use style="fill:#ff7f0e;stroke:#ff7f0e;" x="373.581818" xlink:href="#m4f953c0558" y="242.116364"/>
    </g>
   </g>
   <g id="PathCollection_3">
    <defs>
     <path d="M 0 3 
C 0.795609 3 1.55874 2.683901 2.12132 2.12132 
C 2.683901 1.55874 3 0.795609 3 0 
C 3 -0.795609 2.683901 -1.55874 2.12132 -2.12132 
C 1.55874 -2.683901 0.795609 -3 0 -3 
C -0.795609 -3 -1.55874 -2.683901 -2.12132 -2.12132 
C -2.683901 -1.55874 -3 -0.795609 -3 0 
C -3 0.795609 -2.683901 1.55874 -2.12132 2.12132 
C -1.55874 2.683901 -0.795609 3 0 3 
z
" id="m345f6a3355" style="stroke:#2ca02c;"/>
    </defs>
    <g clip-path="url(#p18ddfd01f1)">
     <use style="fill:#2ca02c;stroke:#2ca02c;" x="69.218182" xlink:href="#m345f6a3355" y="202.342497"/>
     <use style="fill:#2ca02c;stroke:#2ca02c;" x="90.958442" xlink:href="#m345f6a3355" y="207.648292"/>
     <use style="fill:#2ca02c;stroke:#2ca02c;" x="112.698701" xlink:href="#m345f6a3355" y="212.558325"/>
     <use style="fill:#2ca02c;stroke:#2ca02c;" x="134.438961" xlink:href="#m345f6a3355" y="218.194752"/>
     <use style="fill:#2ca02c;stroke:#2ca02c;" x="156.179221" xlink:href="#m345f6a3355" y="224.562181"/>
     <use style="fill:#2ca02c;stroke:#2ca02c;" x="177.919481" xlink:href="#m345f6a3355" y="230.976084"/>
     <use style="fill:#2ca02c;stroke:#2ca02c;" x="199.65974" xlink:href="#m345f6a3355" y="234.574074"/>
     <use style="fill:#2ca02c;stroke:#2ca02c;" x="221.4" xlink:href="#m345f6a3355" y="236.906722"/>
     <use style="fill:#2ca02c;stroke:#2ca02c;" x="243.14026" xlink:href="#m345f6a3355" y="238.737767"/>
     <use style="fill:#2ca02c;stroke:#2ca02c;" x="264.880519" xlink:href="#m345f6a3355" y="239.814682"/>
     <use style="fill:#2ca02c;stroke:#2ca02c;" x="286.620779" xlink:href="#m345f6a3355" y="240.4879"/>
     <use style="fill:#2ca02c;stroke:#2ca02c;" x="308.361039" xlink:href="#m345f6a3355" y="240.621797"/>
     <use style="fill:#2ca02c;stroke:#2ca02c;" x="330.101299" xlink:href="#m345f6a3355" y="241.357967"/>
     <use style="fill:#2ca02c;stroke:#2ca02c;" x="351.841558" xlink:href="#m345f6a3355" y="241.311191"/>
     <use style="fill:#2ca02c;stroke:#2ca02c;" x="373.581818" xlink:href="#m345f6a3355" y="241.632721"/>
    </g>
   </g>
   <g id="PathCollection_4">
    <defs>
     <path d="M 0 3 
C 0.795609 3 1.55874 2.683901 2.12132 2.12132 
C 2.683901 1.55874 3 0.795609 3 0 
C 3 -0.795609 2.683901 -1.55874 2.12132 -2.12132 
C 1.55874 -2.683901 0.795609 -3 0 -3 
C -0.795609 -3 -1.55874 -2.683901 -2.12132 -2.12132 
C -2.683901 -1.55874 -3 -0.795609 -3 0 
C -3 0.795609 -2.683901 1.55874 -2.12132 2.12132 
C -1.55874 2.683901 -0.795609 3 0 3 
z
" id="m62fa172dea" style="stroke:#d62728;"/>
    </defs>
    <g clip-path="url(#p18ddfd01f1)">
     <use style="fill:#d62728;stroke:#d62728;" x="69.218182" xlink:href="#m62fa172dea" y="193.098814"/>
     <use style="fill:#d62728;stroke:#d62728;" x="90.958442" xlink:href="#m62fa172dea" y="212.117481"/>
     <use style="fill:#d62728;stroke:#d62728;" x="112.698701" xlink:href="#m62fa172dea" y="191.662369"/>
     <use style="fill:#d62728;stroke:#d62728;" x="134.438961" xlink:href="#m62fa172dea" y="44.443636"/>
     <use style="fill:#d62728;stroke:#d62728;" x="156.179221" xlink:href="#m62fa172dea" y="159.500812"/>
     <use style="fill:#d62728;stroke:#d62728;" x="177.919481" xlink:href="#m62fa172dea" y="235.626726"/>
     <use style="fill:#d62728;stroke:#d62728;" x="199.65974" xlink:href="#m62fa172dea" y="237.403215"/>
     <use style="fill:#d62728;stroke:#d62728;" x="221.4" xlink:href="#m62fa172dea" y="240.173324"/>
     <use style="fill:#d62728;stroke:#d62728;" x="243.14026" xlink:href="#m62fa172dea" y="240.731583"/>
     <use style="fill:#d62728;stroke:#d62728;" x="264.880519" xlink:href="#m62fa172dea" y="241.303377"/>
     <use style="fill:#d62728;stroke:#d62728;" x="286.620779" xlink:href="#m62fa172dea" y="240.718874"/>
     <use style="fill:#d62728;stroke:#d62728;" x="308.361039" xlink:href="#m62fa172dea" y="239.146685"/>
     <use style="fill:#d62728;stroke:#d62728;" x="330.101299" xlink:href="#m62fa172dea" y="242.022481"/>
     <use style="fill:#d62728;stroke:#d62728;" x="351.841558" xlink:href="#m62fa172dea" y="241.29468"/>
     <use style="fill:#d62728;stroke:#d62728;" x="373.581818" xlink:href="#m62fa172dea" y="241.832681"/>
    </g>
   </g>
   <g id="matplotlib.axis_1">
    <g id="xtick_1">
     <g id="line2d_1">
      <defs>
       <path d="M 0 0 
L 0 3.5 
" id="m5211ca490e" style="stroke:#000000;stroke-width:0.8;"/>
      </defs>
      <g>
       <use style="stroke:#000000;stroke-width:0.8;" x="69.218182" xlink:href="#m5211ca490e" y="252"/>
      </g>
     </g>
     <g id="text_1">
      <!-- 0 -->
      <g transform="translate(66.036932 266.598437)scale(0.1 -0.1)">
       <defs>
        <path d="M 2034 4250 
Q 1547 4250 1301 3770 
Q 1056 3291 1056 2328 
Q 1056 1369 1301 889 
Q 1547 409 2034 409 
Q 2525 409 2770 889 
Q 3016 1369 3016 2328 
Q 3016 3291 2770 3770 
Q 2525 4250 2034 4250 
z
M 2034 4750 
Q 2819 4750 3233 4129 
Q 3647 3509 3647 2328 
Q 3647 1150 3233 529 
Q 2819 -91 2034 -91 
Q 1250 -91 836 529 
Q 422 1150 422 2328 
Q 422 3509 836 4129 
Q 1250 4750 2034 4750 
z
" id="DejaVuSans-30" transform="scale(0.015625)"/>
       </defs>
       <use xlink:href="#DejaVuSans-30"/>
      </g>
     </g>
    </g>
    <g id="xtick_2">
     <g id="line2d_2">
      <g>
       <use style="stroke:#000000;stroke-width:0.8;" x="112.698701" xlink:href="#m5211ca490e" y="252"/>
      </g>
     </g>
     <g id="text_2">
      <!-- 2 -->
      <g transform="translate(109.517451 266.598437)scale(0.1 -0.1)">
       <defs>
        <path d="M 1228 531 
L 3431 531 
L 3431 0 
L 469 0 
L 469 531 
Q 828 903 1448 1529 
Q 2069 2156 2228 2338 
Q 2531 2678 2651 2914 
Q 2772 3150 2772 3378 
Q 2772 3750 2511 3984 
Q 2250 4219 1831 4219 
Q 1534 4219 1204 4116 
Q 875 4013 500 3803 
L 500 4441 
Q 881 4594 1212 4672 
Q 1544 4750 1819 4750 
Q 2544 4750 2975 4387 
Q 3406 4025 3406 3419 
Q 3406 3131 3298 2873 
Q 3191 2616 2906 2266 
Q 2828 2175 2409 1742 
Q 1991 1309 1228 531 
z
" id="DejaVuSans-32" transform="scale(0.015625)"/>
       </defs>
       <use xlink:href="#DejaVuSans-32"/>
      </g>
     </g>
    </g>
    <g id="xtick_3">
     <g id="line2d_3">
      <g>
       <use style="stroke:#000000;stroke-width:0.8;" x="156.179221" xlink:href="#m5211ca490e" y="252"/>
      </g>
     </g>
     <g id="text_3">
      <!-- 4 -->
      <g transform="translate(152.997971 266.598437)scale(0.1 -0.1)">
       <defs>
        <path d="M 2419 4116 
L 825 1625 
L 2419 1625 
L 2419 4116 
z
M 2253 4666 
L 3047 4666 
L 3047 1625 
L 3713 1625 
L 3713 1100 
L 3047 1100 
L 3047 0 
L 2419 0 
L 2419 1100 
L 313 1100 
L 313 1709 
L 2253 4666 
z
" id="DejaVuSans-34" transform="scale(0.015625)"/>
       </defs>
       <use xlink:href="#DejaVuSans-34"/>
      </g>
     </g>
    </g>
    <g id="xtick_4">
     <g id="line2d_4">
      <g>
       <use style="stroke:#000000;stroke-width:0.8;" x="199.65974" xlink:href="#m5211ca490e" y="252"/>
      </g>
     </g>
     <g id="text_4">
      <!-- 6 -->
      <g transform="translate(196.47849 266.598437)scale(0.1 -0.1)">
       <defs>
        <path d="M 2113 2584 
Q 1688 2584 1439 2293 
Q 1191 2003 1191 1497 
Q 1191 994 1439 701 
Q 1688 409 2113 409 
Q 2538 409 2786 701 
Q 3034 994 3034 1497 
Q 3034 2003 2786 2293 
Q 2538 2584 2113 2584 
z
M 3366 4563 
L 3366 3988 
Q 3128 4100 2886 4159 
Q 2644 4219 2406 4219 
Q 1781 4219 1451 3797 
Q 1122 3375 1075 2522 
Q 1259 2794 1537 2939 
Q 1816 3084 2150 3084 
Q 2853 3084 3261 2657 
Q 3669 2231 3669 1497 
Q 3669 778 3244 343 
Q 2819 -91 2113 -91 
Q 1303 -91 875 529 
Q 447 1150 447 2328 
Q 447 3434 972 4092 
Q 1497 4750 2381 4750 
Q 2619 4750 2861 4703 
Q 3103 4656 3366 4563 
z
" id="DejaVuSans-36" transform="scale(0.015625)"/>
       </defs>
       <use xlink:href="#DejaVuSans-36"/>
      </g>
     </g>
    </g>
    <g id="xtick_5">
     <g id="line2d_5">
      <g>
       <use style="stroke:#000000;stroke-width:0.8;" x="243.14026" xlink:href="#m5211ca490e" y="252"/>
      </g>
     </g>
     <g id="text_5">
      <!-- 8 -->
      <g transform="translate(239.95901 266.598437)scale(0.1 -0.1)">
       <defs>
        <path d="M 2034 2216 
Q 1584 2216 1326 1975 
Q 1069 1734 1069 1313 
Q 1069 891 1326 650 
Q 1584 409 2034 409 
Q 2484 409 2743 651 
Q 3003 894 3003 1313 
Q 3003 1734 2745 1975 
Q 2488 2216 2034 2216 
z
M 1403 2484 
Q 997 2584 770 2862 
Q 544 3141 544 3541 
Q 544 4100 942 4425 
Q 1341 4750 2034 4750 
Q 2731 4750 3128 4425 
Q 3525 4100 3525 3541 
Q 3525 3141 3298 2862 
Q 3072 2584 2669 2484 
Q 3125 2378 3379 2068 
Q 3634 1759 3634 1313 
Q 3634 634 3220 271 
Q 2806 -91 2034 -91 
Q 1263 -91 848 271 
Q 434 634 434 1313 
Q 434 1759 690 2068 
Q 947 2378 1403 2484 
z
M 1172 3481 
Q 1172 3119 1398 2916 
Q 1625 2713 2034 2713 
Q 2441 2713 2670 2916 
Q 2900 3119 2900 3481 
Q 2900 3844 2670 4047 
Q 2441 4250 2034 4250 
Q 1625 4250 1398 4047 
Q 1172 3844 1172 3481 
z
" id="DejaVuSans-38" transform="scale(0.015625)"/>
       </defs>
       <use xlink:href="#DejaVuSans-38"/>
      </g>
     </g>
    </g>
    <g id="xtick_6">
     <g id="line2d_6">
      <g>
       <use style="stroke:#000000;stroke-width:0.8;" x="286.620779" xlink:href="#m5211ca490e" y="252"/>
      </g>
     </g>
     <g id="text_6">
      <!-- 10 -->
      <g transform="translate(280.258279 266.598437)scale(0.1 -0.1)">
       <defs>
        <path d="M 794 531 
L 1825 531 
L 1825 4091 
L 703 3866 
L 703 4441 
L 1819 4666 
L 2450 4666 
L 2450 531 
L 3481 531 
L 3481 0 
L 794 0 
L 794 531 
z
" id="DejaVuSans-31" transform="scale(0.015625)"/>
       </defs>
       <use xlink:href="#DejaVuSans-31"/>
       <use x="63.623047" xlink:href="#DejaVuSans-30"/>
      </g>
     </g>
    </g>
    <g id="xtick_7">
     <g id="line2d_7">
      <g>
       <use style="stroke:#000000;stroke-width:0.8;" x="330.101299" xlink:href="#m5211ca490e" y="252"/>
      </g>
     </g>
     <g id="text_7">
      <!-- 12 -->
      <g transform="translate(323.738799 266.598437)scale(0.1 -0.1)">
       <use xlink:href="#DejaVuSans-31"/>
       <use x="63.623047" xlink:href="#DejaVuSans-32"/>
      </g>
     </g>
    </g>
    <g id="xtick_8">
     <g id="line2d_8">
      <g>
       <use style="stroke:#000000;stroke-width:0.8;" x="373.581818" xlink:href="#m5211ca490e" y="252"/>
      </g>
     </g>
     <g id="text_8">
      <!-- 14 -->
      <g transform="translate(367.219318 266.598437)scale(0.1 -0.1)">
       <use xlink:href="#DejaVuSans-31"/>
       <use x="63.623047" xlink:href="#DejaVuSans-34"/>
      </g>
     </g>
    </g>
   </g>
   <g id="matplotlib.axis_2">
    <g id="ytick_1">
     <g id="line2d_9">
      <defs>
       <path d="M 0 0 
L -3.5 0 
" id="m362568555b" style="stroke:#000000;stroke-width:0.8;"/>
      </defs>
      <g>
       <use style="stroke:#000000;stroke-width:0.8;" x="54" xlink:href="#m362568555b" y="242.173109"/>
      </g>
     </g>
     <g id="text_9">
      <!-- 0.0 -->
      <g transform="translate(31.096875 245.972328)scale(0.1 -0.1)">
       <defs>
        <path d="M 684 794 
L 1344 794 
L 1344 0 
L 684 0 
L 684 794 
z
" id="DejaVuSans-2e" transform="scale(0.015625)"/>
       </defs>
       <use xlink:href="#DejaVuSans-30"/>
       <use x="63.623047" xlink:href="#DejaVuSans-2e"/>
       <use x="95.410156" xlink:href="#DejaVuSans-30"/>
      </g>
     </g>
    </g>
    <g id="ytick_2">
     <g id="line2d_10">
      <g>
       <use style="stroke:#000000;stroke-width:0.8;" x="54" xlink:href="#m362568555b" y="213.940749"/>
      </g>
     </g>
     <g id="text_10">
      <!-- 0.5 -->
      <g transform="translate(31.096875 217.739968)scale(0.1 -0.1)">
       <defs>
        <path d="M 691 4666 
L 3169 4666 
L 3169 4134 
L 1269 4134 
L 1269 2991 
Q 1406 3038 1543 3061 
Q 1681 3084 1819 3084 
Q 2600 3084 3056 2656 
Q 3513 2228 3513 1497 
Q 3513 744 3044 326 
Q 2575 -91 1722 -91 
Q 1428 -91 1123 -41 
Q 819 9 494 109 
L 494 744 
Q 775 591 1075 516 
Q 1375 441 1709 441 
Q 2250 441 2565 725 
Q 2881 1009 2881 1497 
Q 2881 1984 2565 2268 
Q 2250 2553 1709 2553 
Q 1456 2553 1204 2497 
Q 953 2441 691 2322 
L 691 4666 
z
" id="DejaVuSans-35" transform="scale(0.015625)"/>
       </defs>
       <use xlink:href="#DejaVuSans-30"/>
       <use x="63.623047" xlink:href="#DejaVuSans-2e"/>
       <use x="95.410156" xlink:href="#DejaVuSans-35"/>
      </g>
     </g>
    </g>
    <g id="ytick_3">
     <g id="line2d_11">
      <g>
       <use style="stroke:#000000;stroke-width:0.8;" x="54" xlink:href="#m362568555b" y="185.708389"/>
      </g>
     </g>
     <g id="text_11">
      <!-- 1.0 -->
      <g transform="translate(31.096875 189.507607)scale(0.1 -0.1)">
       <use xlink:href="#DejaVuSans-31"/>
       <use x="63.623047" xlink:href="#DejaVuSans-2e"/>
       <use x="95.410156" xlink:href="#DejaVuSans-30"/>
      </g>
     </g>
    </g>
    <g id="ytick_4">
     <g id="line2d_12">
      <g>
       <use style="stroke:#000000;stroke-width:0.8;" x="54" xlink:href="#m362568555b" y="157.476028"/>
      </g>
     </g>
     <g id="text_12">
      <!-- 1.5 -->
      <g transform="translate(31.096875 161.275247)scale(0.1 -0.1)">
       <use xlink:href="#DejaVuSans-31"/>
       <use x="63.623047" xlink:href="#DejaVuSans-2e"/>
       <use x="95.410156" xlink:href="#DejaVuSans-35"/>
      </g>
     </g>
    </g>
    <g id="ytick_5">
     <g id="line2d_13">
      <g>
       <use style="stroke:#000000;stroke-width:0.8;" x="54" xlink:href="#m362568555b" y="129.243668"/>
      </g>
     </g>
     <g id="text_13">
      <!-- 2.0 -->
      <g transform="translate(31.096875 133.042887)scale(0.1 -0.1)">
       <use xlink:href="#DejaVuSans-32"/>
       <use x="63.623047" xlink:href="#DejaVuSans-2e"/>
       <use x="95.410156" xlink:href="#DejaVuSans-30"/>
      </g>
     </g>
    </g>
    <g id="ytick_6">
     <g id="line2d_14">
      <g>
       <use style="stroke:#000000;stroke-width:0.8;" x="54" xlink:href="#m362568555b" y="101.011308"/>
      </g>
     </g>
     <g id="text_14">
      <!-- 2.5 -->
      <g transform="translate(31.096875 104.810527)scale(0.1 -0.1)">
       <use xlink:href="#DejaVuSans-32"/>
       <use x="63.623047" xlink:href="#DejaVuSans-2e"/>
       <use x="95.410156" xlink:href="#DejaVuSans-35"/>
      </g>
     </g>
    </g>
    <g id="ytick_7">
     <g id="line2d_15">
      <g>
       <use style="stroke:#000000;stroke-width:0.8;" x="54" xlink:href="#m362568555b" y="72.778948"/>
      </g>
     </g>
     <g id="text_15">
      <!-- 3.0 -->
      <g transform="translate(31.096875 76.578167)scale(0.1 -0.1)">
       <defs>
        <path d="M 2597 2516 
Q 3050 2419 3304 2112 
Q 3559 1806 3559 1356 
Q 3559 666 3084 287 
Q 2609 -91 1734 -91 
Q 1441 -91 1130 -33 
Q 819 25 488 141 
L 488 750 
Q 750 597 1062 519 
Q 1375 441 1716 441 
Q 2309 441 2620 675 
Q 2931 909 2931 1356 
Q 2931 1769 2642 2001 
Q 2353 2234 1838 2234 
L 1294 2234 
L 1294 2753 
L 1863 2753 
Q 2328 2753 2575 2939 
Q 2822 3125 2822 3475 
Q 2822 3834 2567 4026 
Q 2313 4219 1838 4219 
Q 1578 4219 1281 4162 
Q 984 4106 628 3988 
L 628 4550 
Q 988 4650 1302 4700 
Q 1616 4750 1894 4750 
Q 2613 4750 3031 4423 
Q 3450 4097 3450 3541 
Q 3450 3153 3228 2886 
Q 3006 2619 2597 2516 
z
" id="DejaVuSans-33" transform="scale(0.015625)"/>
       </defs>
       <use xlink:href="#DejaVuSans-33"/>
       <use x="63.623047" xlink:href="#DejaVuSans-2e"/>
       <use x="95.410156" xlink:href="#DejaVuSans-30"/>
      </g>
     </g>
    </g>
    <g id="ytick_8">
     <g id="line2d_16">
      <g>
       <use style="stroke:#000000;stroke-width:0.8;" x="54" xlink:href="#m362568555b" y="44.546588"/>
      </g>
     </g>
     <g id="text_16">
      <!-- 3.5 -->
      <g transform="translate(31.096875 48.345806)scale(0.1 -0.1)">
       <use xlink:href="#DejaVuSans-33"/>
       <use x="63.623047" xlink:href="#DejaVuSans-2e"/>
       <use x="95.410156" xlink:href="#DejaVuSans-35"/>
      </g>
     </g>
    </g>
   </g>
   <g id="line2d_17">
    <path clip-path="url(#p18ddfd01f1)" d="M 69.218182 201.980574 
L 90.958442 206.913739 
L 112.698701 217.58486 
L 134.438961 227.161956 
L 156.179221 233.511731 
L 177.919481 237.054376 
L 199.65974 238.755747 
L 221.4 239.640172 
L 243.14026 240.346658 
L 264.880519 240.656482 
L 286.620779 240.837247 
L 308.361039 239.343628 
L 330.101299 241.477598 
L 351.841558 241.272058 
L 373.581818 241.747561 
" style="fill:none;stroke:#1f77b4;stroke-linecap:square;stroke-width:1.5;"/>
   </g>
   <g id="line2d_18">
    <path clip-path="url(#p18ddfd01f1)" d="M 69.218182 202.213624 
L 90.958442 214.424598 
L 112.698701 163.504005 
L 134.438961 224.343327 
L 156.179221 237.26931 
L 177.919481 239.871 
L 199.65974 240.442492 
L 221.4 238.017874 
L 243.14026 241.679512 
L 264.880519 241.527084 
L 286.620779 215.303067 
L 308.361039 241.903349 
L 330.101299 240.480144 
L 351.841558 241.601172 
L 373.581818 242.116364 
" style="fill:none;stroke:#ff7f0e;stroke-linecap:square;stroke-width:1.5;"/>
   </g>
   <g id="line2d_19">
    <path clip-path="url(#p18ddfd01f1)" d="M 69.218182 202.342497 
L 90.958442 207.648292 
L 112.698701 212.558325 
L 134.438961 218.194752 
L 156.179221 224.562181 
L 177.919481 230.976084 
L 199.65974 234.574074 
L 221.4 236.906722 
L 243.14026 238.737767 
L 264.880519 239.814682 
L 286.620779 240.4879 
L 308.361039 240.621797 
L 330.101299 241.357967 
L 351.841558 241.311191 
L 373.581818 241.632721 
" style="fill:none;stroke:#2ca02c;stroke-linecap:square;stroke-width:1.5;"/>
   </g>
   <g id="line2d_20">
    <path clip-path="url(#p18ddfd01f1)" d="M 69.218182 193.098814 
L 90.958442 212.117481 
L 112.698701 191.662369 
L 134.438961 44.443636 
L 156.179221 159.500812 
L 177.919481 235.626726 
L 199.65974 237.403215 
L 221.4 240.173324 
L 243.14026 240.731583 
L 264.880519 241.303377 
L 286.620779 240.718874 
L 308.361039 239.146685 
L 330.101299 242.022481 
L 351.841558 241.29468 
L 373.581818 241.832681 
" style="fill:none;stroke:#d62728;stroke-linecap:square;stroke-width:1.5;"/>
   </g>
   <g id="patch_3">
    <path d="M 54 252 
L 54 34.56 
" style="fill:none;stroke:#000000;stroke-linecap:square;stroke-linejoin:miter;stroke-width:0.8;"/>
   </g>
   <g id="patch_4">
    <path d="M 388.8 252 
L 388.8 34.56 
" style="fill:none;stroke:#000000;stroke-linecap:square;stroke-linejoin:miter;stroke-width:0.8;"/>
   </g>
   <g id="patch_5">
    <path d="M 54 252 
L 388.8 252 
" style="fill:none;stroke:#000000;stroke-linecap:square;stroke-linejoin:miter;stroke-width:0.8;"/>
   </g>
   <g id="patch_6">
    <path d="M 54 34.56 
L 388.8 34.56 
" style="fill:none;stroke:#000000;stroke-linecap:square;stroke-linejoin:miter;stroke-width:0.8;"/>
   </g>
  </g>
 </g>
 <defs>
  <clipPath id="p18ddfd01f1">
   <rect height="217.44" width="334.8" x="54" y="34.56"/>
  </clipPath>
 </defs>
</svg>
